<?xml version="1.0" encoding="UTF-8" standalone="no"?>
<!-- Created with Inkscape (http://www.inkscape.org/) -->

<svg
   version="1.1"
   id="svg62"
   width="611"
   height="568"
   viewBox="0 0 611 568"
   xmlns="http://www.w3.org/2000/svg"
   xmlns:svg="http://www.w3.org/2000/svg">
  <defs
     id="defs66" />
  <g
     id="g68">
    <path
       id="path303"
       style="fill:#000000"
       d="m 292.11328,29.378906 c -18.99712,0.254505 -20.92506,1.682159 -28.60351,7.384766 -2.49829,1.855399 -4.59758,2.957161 -5.3711,2.970703 0.0708,0.322581 0.0948,0.628184 0.0547,0.900391 0.0835,0.123811 0.16628,0.248213 0.25586,0.376953 0.021,0.03015 -0.0556,0.04695 -0.084,0.07031 -0.0849,0.06991 -0.17007,0.140185 -0.25585,0.208985 -0.12434,0.09974 -0.25541,0.198752 -0.38282,0.294922 -0.46111,0.348053 -0.90317,0.626154 -1.32617,0.849609 -4.69906,11.731171 -54.59806,111.154665 -55.60351,110.533205 -0.52838,-0.32656 -0.65994,-0.10744 -0.29297,0.48633 0.91414,1.47911 -1.40781,6.31697 -2.66016,5.54297 -0.55455,-0.34273 -0.70107,-0.12898 -0.32813,0.47461 0.81722,1.3222 -12.43336,28.29113 -13.55859,27.5957 -0.43343,-0.26788 -0.48496,0.32339 -0.11328,1.31445 0.61669,1.64441 0.50615,1.6716 -1.26172,0.30274 -1.75487,-1.3588 -1.81793,-1.34897 -0.68164,0.10742 1.42663,1.82851 -44.63192,96.61096 -46.23828,95.15234 -0.46042,-0.41807 -0.53097,-0.2259 -0.15625,0.42774 0.71248,1.24285 -24.84591,53.56183 -26.45117,54.14648 -0.50649,0.18448 -0.69531,0.7036 -0.41797,1.15235 0.27734,0.44864 -13.489531,29.09758 -30.593751,63.66406 -17.10422,34.56638 -31.937921,64.76211 -32.962891,67.09961 -1.02497,2.3374 -2.131994,4.25 -2.458984,4.25 -0.32701,0 -0.27329,-0.52127 0.11914,-1.15625 0.44563,-0.72104 0.274189,-0.88161 -0.457031,-0.42969 -0.64396,0.39798 -0.941969,1.09403 -0.662109,1.54687 0.27986,0.45283 -0.703437,3.46008 -2.185547,6.68164 -7.70158,16.74075 -0.01749,35.33574 16.703125,40.42188 12.66233,3.85175 63.134438,0.46919 73.503908,-4.92578 14.5053,-7.5468 16.0114,-9.74969 43.63476,-63.79102 7.35194,-14.38283 13.77596,-25.90121 14.27344,-25.5957 0.49748,0.30552 0.60151,0.0679 0.23242,-0.5293 -0.78748,-1.27417 2.3523,-8.34762 3.41407,-7.6914 0.39727,0.24552 0.66133,-0.11139 0.58593,-0.79297 -0.20319,-1.83665 27.35958,-55.73828 28.50196,-55.73828 0.53772,0 0.75379,-0.36513 0.47851,-0.81055 -0.27529,-0.44542 3.05029,-7.75802 7.39063,-16.25 4.34023,-8.49198 12.74709,-24.96331 18.68164,-36.60156 5.11243,-10.02618 9.53446,-17.89185 11.03711,-19.79102 0.004,-0.21145 0.0913,-0.42945 0.17773,-0.64648 0.04,-0.0772 0.0791,-0.15317 0.11914,-0.23047 0.17048,-0.32915 0.39331,-0.50426 0.60352,-0.55859 -0.62379,-1.53676 4.18982,-11.49471 6.125,-13.14063 0.0817,-0.19001 0.18319,-0.36958 0.32031,-0.53125 0.008,-0.0617 0.0187,-0.12085 0.0273,-0.16797 0.0771,-0.30834 0.23124,-0.57963 0.4375,-0.81836 0.0224,0.003 0.0455,0.006 0.0684,0.008 -0.0459,-0.88852 0.3249,-2.29002 1.1875,-3.73046 1.06438,-1.77747 6.34732,-11.87356 11.74024,-22.43555 5.39282,-10.562 10.24966,-18.93027 10.79101,-18.5957 0.54737,0.3383 0.66833,0.0999 0.27344,-0.53907 -0.39055,-0.63191 4.43502,-11.16579 10.72266,-23.40625 6.28753,-12.24037 16.521,-32.24203 22.74023,-44.44922 6.21933,-12.20709 11.74377,-21.92547 12.27735,-21.5957 0.53347,0.32977 0.66169,0.10145 0.28515,-0.50781 -1.00402,-1.62453 13.1658,-29.45069 14.55859,-28.58984 0.69267,0.428 0.84774,0.2468 0.4043,-0.47071 -0.39677,-0.64198 -0.0985,-2.39889 0.66211,-3.90429 2.13598,-4.22782 4.18567,-7.685325 4.88281,-8.236335 1.49659,-1.18289 15.18033,-22.984089 17.57422,-28 5.84351,-12.243916 3.84498,-25.949519 -4.87109,-33.410156 -6.27043,-5.367287 -8.64067,-5.63855 -51.33594,-5.875 -10.97049,-0.06076 -19.1989,-0.106365 -25.53125,-0.02148 z m 74.5957,5.306641 c 0.74865,0 3.43555,2.680946 3.43555,3.427734 0,1.272231 -1.59515,0.449593 -2.76758,-1.427734 -0.68692,-1.09999 -0.98691,-2 -0.66797,-2 z m 8.71485,18.376953 c 0.10514,-0.10514 0.24478,0.03668 0.40429,0.435547 0.28891,0.721865 0.25399,1.583733 -0.0781,1.916015 -0.33229,0.332291 -0.56879,-0.258344 -0.52539,-1.3125 0.024,-0.582461 0.0941,-0.933922 0.19922,-1.039062 z m 1.0332,120.99609 c -1.49291,-0.065 -2.98879,-0.0635 -4.48047,0.01 -1.70478,0.0819 -3.40308,0.25462 -5.08203,0.52148 -4.53654,0.72109 -9.0375,1.35742 -10,1.41602 -0.9625,0.0586 -1.75,0.43109 -1.75,0.82617 0,0.74693 -2.83964,1.8838 -4.38672,1.75586 -0.4885,-0.0404 -1.1635,0.31298 -1.5,0.78516 -0.58162,0.81616 -6.18224,4.61463 -7,4.74804 -0.21286,0.0347 -2.04988,1.63946 -4.08398,3.56446 -2.0341,1.9249 -4.56025,4.07911 -5.61328,4.78711 -1.05304,0.708 -1.24102,0.97431 -0.41602,0.59375 0.825,-0.38056 0.3083,0.61532 -1.15039,2.21289 -1.45869,1.59756 -4.79329,6.50625 -7.4082,10.90625 -2.61502,4.3999 -5.66182,9.0125 -6.77149,10.25 -1.10966,1.2375 -1.70784,2.25 -1.33007,2.25 0.37767,0 -0.36611,1.6875 -1.65235,3.75 -1.28625,2.0624 -5.61224,9.7125 -9.61328,17 -4.00105,7.2874 -7.70535,13.25 -8.23242,13.25 -0.52708,0 -0.68172,0.45 -0.3418,1 0.33992,0.55 0.0667,1 -0.60742,1 -0.67413,0 -0.9263,0.29832 -0.56055,0.66406 0.58411,0.58411 -3.69223,9.01305 -5.24414,10.33594 -0.32262,0.275 -0.67272,0.95 -0.77734,1.5 -0.49417,2.59756 -12.35983,23.1381 -13.51367,23.4707 -0.004,0.0326 -0.0102,0.0715 -0.0293,0.21289 -0.096,0.71178 -0.34954,0.72275 -0.6543,0.4668 0.18951,0.97089 -0.34317,2.8345 -0.97461,4.09179 -0.0112,0.06 -0.0239,0.12104 -0.041,0.1836 -0.0588,0.21424 -0.1203,0.42768 -0.2168,0.6289 -0.21238,0.45186 -0.46761,0.87923 -0.7832,1.26758 -0.25725,0.31886 -0.52695,0.63275 -0.85742,0.87891 -0.0596,0.0444 -0.11958,0.0848 -0.17774,0.12305 -0.68406,2.49491 -7.79171,15.76059 -8.88281,16.57617 -0.004,0.0883 -0.007,0.16586 -0.004,0.082 -0.002,-0.0229 -0.005,-0.045 -0.008,-0.0664 -0.0438,0.0314 -0.22403,0.34925 -0.24609,0.33594 -0.23097,-0.13932 -0.32651,-0.0822 -0.21094,0.125 0.002,0.004 -0.0251,0.0559 -0.0234,0.0605 0.15702,-0.0344 0.31395,-0.0685 0.4707,-0.0996 -0.1232,0.63549 -0.3075,0.60173 -0.5332,0.25976 0.0225,0.34706 -0.4277,1.55624 -1.18945,3.0293 -1.63033,3.15271 -0.61359,3.98991 1.24023,1.02148 4.01703,-6.43219 26.63852,-20.6527 34.16407,-21.47656 1.74291,-0.19082 3.46753,-0.64526 3.83203,-1.00976 0.3645,-0.36449 4.33655,-0.66211 8.82812,-0.66211 4.49167,0 8.46558,0.29762 8.83008,0.66211 0.3645,0.3645 2.02367,0.81199 3.6875,0.99414 6.46987,0.7083 21.83624,11.04646 20.33008,13.67773 -0.36709,0.6413 -0.29901,0.83088 0.15234,0.42188 0.81414,-0.73775 3.23358,1.9263 3.29688,3.63086 0.0181,0.4885 0.5461,1.20504 1.17187,1.59179 1.40534,0.86855 20.19553,39.01396 19.22852,39.03516 -0.38332,0.008 -0.15985,0.3564 0.49609,0.77344 1.44094,0.91611 32.47708,64.20476 31.49609,64.22656 -0.37892,0.008 -0.18742,0.34592 0.42579,0.75 1.38381,0.91195 15.49712,30.2289 14.5625,30.25 -0.37275,0.008 -0.16927,0.34592 0.45117,0.75 1.47676,0.96179 17.61275,33.23 16.62695,33.25 -0.41574,0.008 -0.25023,0.34592 0.36719,0.75 0.61742,0.40408 2.71518,3.88633 4.66015,7.73633 6.36684,12.60204 15.61455,20.76629 28.49024,25.15429 8.12745,2.76988 68.1236,3.54645 75.31836,0.97461 14.94599,-5.34248 21.33213,-23.19537 14.05664,-39.28906 -1.70104,-3.76278 -3.21636,-7.51484 -3.36914,-8.33984 -0.15279,-0.825 -0.5963,-1.74084 -0.98438,-2.03321 -1.02928,-0.77542 -27.04069,-55.23817 -27.08789,-56.71679 -0.0219,-0.6875 -0.35311,-1.25 -0.73633,-1.25 -0.82841,0 -6.30273,-11.94119 -6.30273,-13.74805 0,-0.68946 -0.40179,-1.25195 -0.89258,-1.25195 -0.4908,0 -0.61531,-0.45 -0.27539,-1 0.33992,-0.55 0.21488,-1 -0.2793,-1 -1.69401,0 -3.17478,-4.64518 -1.89257,-5.9375 0.89885,-0.90594 0.81619,-1.04591 -0.35743,-0.59961 -1.45211,0.55223 -21.08466,-38.63644 -20.13476,-40.19141 0.18448,-0.30198 -0.12551,-0.83311 -0.68945,-1.18164 -1.72508,-1.06615 -9.25278,-18.10785 -8.52149,-19.29101 0.41485,-0.67124 0.22979,-0.82626 -0.46875,-0.39454 -1.0219,0.63156 -1.34571,0.0149 -1.07031,-2.04296 0.047,-0.351 -0.38836,-0.93158 -0.9668,-1.28907 -0.57843,-0.35749 -6.06796,-11.20743 -12.19922,-24.11133 -6.13116,-12.9038 -13.55457,-28.52353 -16.49609,-34.71093 -2.94153,-6.1875 -5.02651,-11.25763 -4.63477,-11.26563 0.39175,-0.008 0.19433,-0.34592 -0.4375,-0.75 -1.83387,-1.17289 -14.38998,-28.35293 -13.67578,-29.60351 0.35565,-0.62279 0.26809,-0.78825 -0.19336,-0.36914 -1.11044,1.00844 -5.68914,-8.09163 -4.82812,-9.59571 0.36747,-0.64198 0.32087,-0.85664 -0.10156,-0.47656 -0.42243,0.38008 -2.9378,-3.74481 -5.58985,-9.16797 -2.65205,-5.42306 -6.41932,-11.63033 -8.37304,-13.79297 -1.95382,-2.16264 -3.33543,-4.2233 -3.07032,-4.58008 0.26512,-0.35678 0.19204,-0.43435 -0.16211,-0.17187 -0.35415,0.26248 -2.24582,-0.92991 -4.20312,-2.64844 -7.12189,-6.25308 -17.39151,-10.00034 -27.8418,-10.45508 z M 265.45508,277.88086 c -0.0123,0.0188 -0.0197,0.0337 -0.0312,0.0527 0.0103,-0.0112 0.0209,-0.022 0.0312,-0.0332 -4.2e-4,-0.006 4e-4,-0.0131 0,-0.0195 z m -3.125,37.56641 c -9.9e-4,0.006 -2.8e-4,0.004 -0.002,0.0137 -0.002,0.0116 -0.006,0.006 -0.008,0.0176 0.003,-0.0133 0.007,-0.0186 0.01,-0.0312 z m -26.71289,109.9082 c -2.3301,0.11453 -7.93246,1.51696 -10.50196,2.8457 -3.33274,1.72348 -7.46159,7.56136 -5.99023,8.47071 0.55079,0.3403 0.54374,1.15173 -0.0176,2.03906 -1.19492,1.8895 -1.22369,3.25385 -0.0547,2.53125 0.49871,-0.30822 0.64914,0.41949 0.33594,1.61719 l -0.56836,2.17773 -0.80664,-2.17773 c -0.44301,-1.19756 -0.54923,-2.96391 -0.23633,-3.92579 0.5423,-1.66697 -6.58477,10.27557 -9.5332,15.97461 -0.7704,1.48913 -1.85222,2.4291 -2.4043,2.08789 -0.56288,-0.34787 -0.69509,-0.12043 -0.30078,0.51758 0.38676,0.62579 -2.64911,7.55771 -6.74804,15.4043 -10.32811,19.77089 -12.18488,22.88298 -13.13672,22.01953 -0.456,-0.41366 -0.50503,-0.18678 -0.10742,0.50391 0.77074,1.33894 -9.23504,21.46434 -10.33399,20.78515 -0.35119,-0.21705 -0.67058,0.35913 -0.70898,1.28125 -0.0384,0.92212 -0.40697,2.46524 -0.82032,3.42774 -1.0536,2.45327 98.66037,2.73214 103.38477,0.28906 1.55295,-0.8031 3.14263,-1.14056 3.5332,-0.75 0.39052,0.39057 0.60191,0.26094 0.46875,-0.28906 -0.34508,-1.42543 1.15695,-4.56779 1.94922,-4.07813 4.44332,2.74612 0.71715,-12.32727 -6.23633,-25.23047 -4.11484,-7.63582 -10.71982,-20.13982 -14.67773,-27.78711 -3.95802,-7.64719 -8.52291,-16.26182 -10.14453,-19.14257 -1.62163,-2.88086 -2.62311,-5.76268 -2.22656,-6.4043 0.43215,-0.6994 0.28571,-0.89915 -0.36329,-0.49805 -0.59538,0.36797 -1.35543,-0.19173 -1.68945,-1.24414 -0.87181,-2.74682 -5.57461,-7.21383 -8.78516,-8.34375 -1.51175,-0.53208 -2.53486,-1.31333 -2.27343,-1.73633 0.1842,-0.29805 -0.22916,-0.40341 -1.00586,-0.36523 z m -8.08985,3.33008 c 0.55,0 0.12622,0.65928 -0.9414,1.46679 -1.06762,0.8075 -2.39141,1.46875 -2.94141,1.46875 -0.55,0 -0.12621,-0.66125 0.94141,-1.46875 1.06762,-0.80751 2.3914,-1.46679 2.9414,-1.46679 z m 11.91211,0.37304 c 0.18125,-0.0799 0.43008,-0.043 0.70508,0.12696 0.55,0.33992 1,0.81605 1,1.05859 0,0.24254 -0.45,0.44141 -1,0.44141 -0.55,0 -1,-0.47809 -1,-1.06055 0,-0.29123 0.11367,-0.48648 0.29492,-0.56641 z m -11.52539,1.78907 c 0.32501,-0.12376 0.60387,-0.12474 0.75782,0.0293 0.30779,0.30789 -0.24621,0.86861 -1.23243,1.24414 -1.4252,0.54268 -1.5408,0.42708 -0.56054,-0.56054 0.33917,-0.34171 0.71015,-0.58914 1.03515,-0.71289 z m 259.14844,94.96093 c -0.3474,-0.0143 -0.74453,0.0489 -1.10547,0.19336 -0.79773,0.31922 -0.55948,0.55552 0.60547,0.60352 1.05416,0.0434 1.64479,-0.1931 1.3125,-0.52539 -0.16614,-0.16613 -0.4651,-0.25718 -0.8125,-0.27149 z" />
  </g>
</svg>
